<?xml version="1.0" encoding="UTF-8"?>
<svg id="Layer_1" data-name="Layer 1" xmlns="http://www.w3.org/2000/svg" viewBox="0 0 514.06 105">
  <defs>
    <style>
      .cls-1, .cls-2, .cls-3 {
        fill: #fff;
      }

      .cls-2 {
        font-family: MontserratRoman-Bold, Montserrat;
        font-variation-settings: 'wght' 700;
        font-weight: 700;
      }

      .cls-2, .cls-4, .cls-5 {
        isolation: isolate;
      }

      .cls-2, .cls-5 {
        font-size: 80px;
        letter-spacing: -.04em;
      }

      .cls-3 {
        font-family: MontserratRoman-Regular, Montserrat;
        font-size: 13px;
        font-variation-settings: 'wght' 400;
      }

      .cls-5 {
        fill: #eb9947;
        font-family: MontserratRoman-Light, Montserrat;
        font-variation-settings: 'wght' 300;
        font-weight: 300;
      }
    </style>
  </defs>
  <g>
    <path class="cls-1" d="m47.99,0c13.16,0,25.1,5.83,33.78,15.24-6.96-5.56-15.52-8.83-24.77-8.83-23.24,0-42.14,20.67-42.14,46.09s18.9,46.09,42.14,46.09c9.25,0,17.81-3.27,24.77-8.83-8.68,9.42-20.62,15.24-33.78,15.24-26.46,0-47.99-23.55-47.99-52.5S21.53,0,47.99,0Z"/>
    <path class="cls-1" d="m59.71,9.86c10.94,0,20.84,4.95,27.93,12.92-5.36-4.1-11.89-6.51-18.92-6.51-18.26,0-33.12,16.26-33.12,36.23s14.86,36.23,33.12,36.23c7.03,0,13.56-2.41,18.92-6.51-7.09,7.97-16.99,12.92-27.93,12.92-21.5,0-38.98-19.13-38.98-42.64S38.21,9.86,59.71,9.86Z"/>
    <path class="cls-1" d="m71.43,19.72c8.71,0,16.57,4.09,22.05,10.61-3.76-2.65-8.24-4.2-13.04-4.2-13.29,0-24.11,11.83-24.11,26.37s10.82,26.37,24.11,26.37c4.8,0,9.28-1.55,13.04-4.2-5.49,6.52-13.35,10.61-22.05,10.61-16.52,0-29.97-14.71-29.97-32.78s13.45-32.78,29.97-32.78Z"/>
    <path class="cls-1" d="m83.14,29.58c7.81,0,14.65,4.7,18.24,11.66-2.75-3.23-6.68-5.25-11.03-5.25-8.33,0-15.1,7.4-15.1,16.51s6.77,16.51,15.1,16.51c4.35,0,8.28-2.02,11.03-5.25-3.6,6.96-10.43,11.66-18.24,11.66-11.55,0-20.95-10.28-20.95-22.92s9.4-22.92,20.95-22.92Z"/>
    <path class="cls-1" d="m93.06,39.44c-6.59,0-11.94,5.86-11.94,13.06s5.35,13.06,11.94,13.06,11.94-5.86,11.94-13.06-5.35-13.06-11.94-13.06Zm2.88,19.47c-3.23,0-5.86-2.87-5.86-6.41s2.63-6.41,5.86-6.41,5.86,2.87,5.86,6.41-2.63,6.41-5.86,6.41Z"/>
  </g>
  <g>
    <g class="cls-4">
      <text class="cls-2" transform="translate(118.3 73.79)"><tspan x="0" y="0">Echo</tspan></text>
    </g>
    <g class="cls-4">
      <text class="cls-5" transform="translate(312.06 73.79)"><tspan x="0" y="0">Pulse</tspan></text>
    </g>
  </g>
  <text class="cls-3" transform="translate(257.95 95.14)"><tspan x="0" y="0">une création de Yvan junior Blanchette</tspan></text>
</svg>