<?xml version="1.0" standalone="no"?>
<!DOCTYPE svg PUBLIC "-//W3C//DTD SVG 20010904//EN"
 "http://www.w3.org/TR/2001/REC-SVG-20010904/DTD/svg10.dtd">
<svg version="1.0" xmlns="http://www.w3.org/2000/svg"
 width="700.000000pt" height="700.000000pt" viewBox="0 0 700.000000 700.000000"
 preserveAspectRatio="xMidYMid meet">
<metadata>
Created by potrace 1.14, written by Peter Selinger 2001-2017
</metadata>
<g transform="translate(0.000000,700.000000) scale(0.100000,-0.100000)"
fill="#000000" stroke="none">
<path d="M2999 6996 c-2 -2 -40 -6 -83 -10 -243 -21 -610 -111 -821 -201 -180
-78 -257 -116 -400 -198 -434 -250 -840 -645 -1124 -1095 -39 -62 -71 -115
-71 -118 0 -3 -9 -18 -19 -32 -61 -86 -226 -456 -290 -649 -30 -93 -89 -306
-98 -353 -2 -14 -9 -45 -14 -70 -13 -59 -36 -192 -44 -255 -4 -27 -8 -60 -10
-73 -13 -79 -20 -238 -20 -442 0 -278 7 -374 42 -590 8 -52 17 -108 19 -125
13 -79 88 -364 127 -480 362 -1074 1157 -1875 2164 -2180 62 -19 123 -37 135
-39 13 -3 66 -14 118 -25 52 -11 115 -23 140 -26 25 -4 56 -9 70 -11 197 -28
605 -26 795 6 33 5 80 13 105 16 25 4 97 19 161 35 546 133 1024 401 1447 810
56 54 99 99 95 99 -5 -1 -36 -22 -70 -48 -210 -160 -544 -326 -813 -405 -160
-47 -237 -63 -435 -91 -101 -14 -541 -16 -612 -2 -37 7 -78 13 -138 22 -22 3
-56 10 -75 14 -19 5 -50 12 -67 15 -55 9 -263 74 -358 112 -349 138 -681 358
-956 633 -88 89 -212 232 -267 310 -26 36 -49 67 -52 70 -10 8 -114 169 -158
246 -41 70 -141 271 -175 351 -81 190 -183 536 -203 691 -2 19 -6 37 -9 41 -2
4 -7 39 -10 77 -4 38 -9 72 -11 75 -25 41 -24 693 1 814 3 11 7 38 10 60 9 68
16 108 25 155 6 25 12 57 14 71 2 15 18 80 36 145 109 407 285 775 524 1094
165 221 377 436 571 580 33 25 62 47 65 50 25 27 301 191 410 243 186 89 427
172 585 202 248 46 289 50 540 50 261 0 330 -6 530 -47 354 -72 749 -250 1038
-467 103 -77 23 11 -150 166 -323 289 -708 511 -1113 641 -157 50 -395 104
-525 118 -33 3 -69 8 -80 11 -23 5 -491 14 -496 9z"/>
<path d="M3917 6344 c-1 -1 -47 -5 -102 -8 -55 -3 -111 -8 -124 -11 -13 -2
-49 -7 -80 -11 -85 -10 -343 -77 -456 -119 -517 -191 -985 -571 -1284 -1040
-35 -55 -71 -111 -80 -125 -29 -42 -137 -259 -176 -355 -64 -153 -141 -400
-170 -545 -10 -52 -45 -287 -51 -345 -10 -102 -12 -405 -3 -515 36 -462 170
-900 392 -1285 40 -70 155 -245 166 -255 3 -3 26 -32 50 -65 88 -117 287 -328
391 -412 19 -15 44 -36 54 -45 45 -41 247 -177 348 -234 244 -139 580 -256
828 -289 25 -3 56 -8 70 -10 128 -21 470 -21 582 0 13 3 43 7 68 10 268 32
628 164 895 327 213 131 428 307 575 473 21 24 16 22 -30 -11 -139 -101 -327
-201 -490 -262 -78 -29 -239 -75 -300 -86 -24 -4 -63 -11 -125 -21 -134 -23
-463 -23 -575 0 -14 3 -41 8 -60 11 -19 3 -73 14 -120 26 -673 163 -1237 657
-1529 1340 -62 146 -130 357 -147 458 -3 14 -7 39 -11 55 -4 17 -7 32 -8 35
-1 3 -5 30 -9 60 -4 30 -10 64 -11 75 -19 103 -25 406 -11 560 11 135 14 159
42 295 78 378 229 717 453 1014 46 61 91 118 100 126 9 8 38 39 64 68 86 94
202 198 312 278 219 161 512 300 738 349 10 2 26 6 35 9 20 6 62 14 112 21 19
3 44 7 55 10 55 11 184 19 310 18 408 -3 819 -136 1160 -376 61 -43 66 -45 40
-17 -394 429 -898 703 -1468 796 -93 15 -410 36 -420 28z"/>
<path d="M4647 5684 c-1 -1 -31 -5 -67 -9 -57 -5 -134 -17 -195 -29 -552 -110
-1074 -521 -1360 -1071 -83 -160 -174 -403 -199 -535 -3 -14 -8 -36 -11 -50
-3 -14 -8 -38 -10 -53 -2 -16 -6 -40 -9 -55 -35 -170 -40 -517 -10 -704 4 -28
9 -58 19 -120 9 -50 43 -183 67 -262 12 -39 22 -73 23 -76 6 -21 20 -55 74
-180 151 -350 436 -691 758 -908 34 -23 108 -67 165 -96 778 -411 1690 -237
2298 439 34 37 34 38 6 21 -169 -106 -369 -190 -521 -220 -16 -4 -41 -9 -55
-11 -64 -13 -104 -16 -227 -19 -258 -6 -485 47 -718 167 -640 330 -1011 1096
-900 1857 11 79 17 109 40 200 168 677 707 1185 1350 1274 97 13 324 14 395 2
262 -47 407 -102 640 -245 l25 -15 -25 29 c-160 185 -401 370 -623 479 -154
75 -369 146 -492 162 -27 3 -53 8 -56 10 -17 10 -372 27 -382 18z"/>
<path d="M5438 5025 c-2 -1 -28 -5 -58 -8 -30 -4 -101 -18 -158 -32 -342 -87
-643 -316 -845 -645 -101 -166 -188 -405 -212 -590 -3 -25 -8 -62 -11 -83 -9
-70 -6 -291 6 -377 31 -231 111 -459 223 -639 177 -286 461 -517 747 -609 155
-50 217 -61 380 -67 470 -16 913 235 1191 675 54 85 55 87 13 49 -21 -20 -52
-48 -69 -63 -76 -69 -229 -158 -330 -190 -187 -59 -406 -59 -585 1 -252 85
-477 290 -600 548 -33 71 -75 190 -86 250 -2 11 -6 31 -9 45 -23 114 -23 272
1 427 4 28 36 144 48 178 2 6 7 21 12 35 11 38 75 157 119 225 60 93 226 252
320 307 174 101 316 138 510 133 196 -5 354 -55 512 -163 58 -40 70 -50 152
-126 l44 -41 -23 40 c-153 261 -352 452 -606 583 -75 38 -227 95 -284 105 -14
3 -36 8 -50 11 -61 14 -113 18 -227 21 -67 1 -124 1 -125 0z"/>
<path d="M6090 4363 c-14 -2 -56 -13 -95 -25 -285 -85 -498 -330 -571 -657
-13 -60 -16 -257 -4 -325 43 -252 173 -464 366 -597 60 -41 185 -95 263 -113
145 -34 331 -11 478 60 71 34 198 128 238 175 85 102 155 222 188 324 51 154
58 372 18 525 -85 322 -323 563 -617 624 -63 13 -203 18 -264 9z m428 -457
c86 -31 159 -95 207 -181 125 -224 47 -504 -168 -610 -260 -127 -549 73 -548
380 0 141 44 246 140 333 99 91 247 122 369 78z"/>
</g>
</svg>
